HIERARCHY
ROOT Hips
{
	OFFSET 0.000000 0.000000 0.000000 
	CHANNELS 6 Xposition Yposition Zposition Zrotation Yrotation Xrotation
	JOINT LeftUpLeg
	{
		OFFSET 1.363060 -1.794630 0.839290 
		CHANNELS 3 Zrotation Yrotation Xrotation
		JOINT LeftLeg
		{
			OFFSET 2.448110 -6.726130 0.000000 
			CHANNELS 3 Zrotation Yrotation Xrotation
			JOINT LeftFoot
			{
				OFFSET 2.562200 -7.039590 0.000000 
				CHANNELS 3 Zrotation Yrotation Xrotation
				JOINT LeftToeBase
				{
					OFFSET 0.157640 -0.433110 2.322550 
					CHANNELS 3 Zrotation Yrotation Xrotation
					End Site
					{
						OFFSET 0.000000 0.000000 0.000000 
					}
				}
			}
		}
	}
	JOINT RightUpLeg
	{
		OFFSET -1.305520 -1.794630 0.839290 
		CHANNELS 3 Zrotation Yrotation Xrotation
		JOINT RightLeg
		{
			OFFSET -2.542530 -6.985550 0.000000 
			CHANNELS 3 Zrotation Yrotation Xrotation
			JOINT RightFoot
			{
				OFFSET -2.568260 -7.056230 0.000000 
				CHANNELS 3 Zrotation Yrotation Xrotation
				JOINT RightToeBase
				{
					OFFSET -0.164730 -0.452590 2.363150 
					CHANNELS 3 Zrotation Yrotation Xrotation
					End Site
					{
						OFFSET 0.000000 0.000000 0.000000 
					}
				}
			}
		}
	}
	JOINT Spine
	{
		OFFSET 0.028270 2.035590 -0.193380 
		CHANNELS 3 Zrotation Yrotation Xrotation
		JOINT Spine1
		{
			OFFSET 0.056720 2.048850 -0.042750 
			CHANNELS 3 Zrotation Yrotation Xrotation
			JOINT Neck1
			{
				OFFSET -0.054170 1.746240 0.172020 
				CHANNELS 3 Zrotation Yrotation Xrotation
				JOINT Head
				{
					OFFSET 0.104070 1.761360 -0.123970 
					CHANNELS 3 Zrotation Yrotation Xrotation
					End Site
					{
						OFFSET 0.000000 0.000000 0.000000 
					}
				}
			}
			JOINT LeftArm
			{
				OFFSET 3.362410 1.200890 -0.311210 
				CHANNELS 3 Zrotation Yrotation Xrotation
				JOINT LeftForeArm
				{
					OFFSET 4.983000 -0.000000 -0.000000 
					CHANNELS 3 Zrotation Yrotation Xrotation
					JOINT LeftHand
					{
						OFFSET 3.483560 -0.000000 -0.000000 
						CHANNELS 3 Zrotation Yrotation Xrotation
						JOINT LeftHandIndex1
						{
							OFFSET 0.715260 -0.000000 -0.000000 
							CHANNELS 3 Zrotation Yrotation Xrotation
							End Site
							{
								OFFSET 0.000000 0.000000 0.000000 
							}
						}
					}
				}
			}
			JOINT RightArm
			{
				OFFSET -3.136600 1.374050 -0.404650 
				CHANNELS 3 Zrotation Yrotation Xrotation
				JOINT RightForeArm
				{
					OFFSET -5.241900 -0.000000 -0.000000 
					CHANNELS 3 Zrotation Yrotation Xrotation
					JOINT RightHand
					{
						OFFSET -3.444170 -0.000000 -0.000000 
						CHANNELS 3 Zrotation Yrotation Xrotation
						JOINT RightHandIndex1
						{
							OFFSET -0.622530 -0.000000 -0.000000 
							CHANNELS 3 Zrotation Yrotation Xrotation
							End Site
							{
								OFFSET 0.000000 0.000000 0.000000 
							}
						}
					}
				}
			}
		}
	}
}
MOTION
Frames: 10
Frame Time: 0.041667
11.118858 24.072240 11.604920 -179.680792 -4.132658 -168.509135 -22.438766 -5.963894 -9.934189 1.090905 11.232797 31.743565 0.726787 7.423304 -27.564947 2.634600 -10.078600 -29.231500 20.934444 9.210919 -37.504412 -5.713217 -16.910848 48.698343 1.471762 -11.309101 -15.134388 -3.390600 11.302000 -33.305300 1.233306 0.027796 -4.258482 3.703491 -0.545947 6.933426 5.818767 -6.343700 17.698764 0.337800 -3.132200 10.848200 -2.787432 9.753812 -27.564373 46.420658 -43.843622 -28.782231 -0.649864 -1.773294 -13.017085 -7.125000 0.000000 0.000000 -0.615061 -11.681610 -24.785289 -17.220948 21.732162 -6.115266 3.691765 1.282090 18.101476 7.125000 0.000000 0.000000 
11.132982 24.052629 11.543287 -179.431587 -4.099255 -168.631099 -22.251022 -6.256773 -9.537034 1.128533 11.273320 31.917578 0.835421 7.370683 -28.096342 2.537900 -9.906500 -28.674600 21.294751 8.974910 -37.421948 -5.765866 -16.952684 48.912549 1.330417 -10.811199 -15.480437 -3.416200 11.340100 -33.435700 1.271727 0.054235 -4.257732 3.810298 -0.553984 6.982881 5.541467 -6.198079 17.787858 0.132000 -3.078800 10.980700 -2.659141 9.479597 -27.431899 41.990847 -41.596236 -24.852462 -0.673708 -1.793197 -13.664113 -7.125000 0.000000 0.000000 -2.573460 -11.564297 -26.296368 -16.949957 21.430340 -5.961197 3.778204 1.364356 18.589164 7.125000 0.000000 0.000000 
11.140569 24.025898 11.475467 -179.210767 -4.050042 -168.695755 -22.123235 -6.645033 -9.101928 1.146504 11.287832 32.011284 0.886742 7.472615 -28.550853 2.477200 -9.796300 -28.319600 21.554055 8.841143 -37.338955 -5.815727 -16.993366 49.107462 1.240269 -10.515624 -15.756636 -3.422800 11.350000 -33.469400 1.314939 0.110336 -4.265434 3.984772 -0.548127 6.961295 5.175467 -6.039522 17.800978 -0.157800 -3.018900 11.012600 -2.478175 9.291674 -27.213192 38.001981 -39.286808 -21.467983 -0.763121 -1.834649 -14.784157 -7.125000 0.000000 0.000000 -4.377209 -11.703209 -27.225052 -16.718943 21.236835 -5.861123 3.953532 1.541766 18.315635 7.125000 0.000000 0.000000 
11.137884 24.008155 11.401460 -179.118277 -4.056306 -168.697774 -22.158165 -7.073322 -8.648466 1.144552 11.276846 32.023665 0.867224 7.767185 -28.917232 2.451700 -9.749600 -28.169700 21.628180 8.630992 -37.320229 -5.880819 -17.044623 49.350584 1.100174 -10.034175 -16.133355 -3.362100 11.259300 -33.159500 1.364157 0.125567 -4.274508 4.307256 -0.565825 6.920467 4.808695 -5.890402 17.774707 -0.414000 -2.982000 10.956200 -2.174622 9.129130 -27.013090 34.248068 -36.843613 -18.432507 -0.912465 -1.926722 -16.133190 -7.125000 0.000000 0.000000 -6.019884 -11.992257 -27.496745 -16.523238 21.177087 -5.826240 4.235493 1.870601 17.480211 7.125000 0.000000 0.000000 
11.125861 24.004069 11.321150 -178.959732 -4.120574 -168.733878 -22.145410 -7.504520 -8.117871 1.127833 11.241622 31.965952 0.795295 8.160648 -29.151504 2.415100 -9.681900 -27.952700 21.786428 8.424523 -37.148286 -5.963843 -17.107095 49.663985 0.888629 -9.345173 -16.778181 -3.295100 11.158100 -32.815000 1.422505 0.123238 -4.278623 4.698126 -0.602706 6.933623 4.496850 -5.772077 17.810638 -0.610100 -2.967100 11.010800 -1.660250 8.962255 -26.949644 30.751322 -34.295928 -15.752100 -1.069323 -2.083151 -17.636982 -7.125000 0.000000 0.000000 -7.444368 -12.184234 -27.997629 -16.254982 20.981897 -5.718269 4.436426 2.134685 17.083487 7.125000 0.000000 0.000000 
11.103683 23.998933 11.236521 -178.648760 -4.175879 -168.758428 -22.002526 -7.966095 -7.546640 1.096182 11.183167 31.838387 0.725611 8.531447 -29.366009 2.314100 -9.491800 -27.346300 22.108030 8.345730 -36.834003 -6.054329 -17.176026 50.008254 0.686204 -8.761011 -17.540774 -3.261100 11.106100 -32.638600 1.480717 0.146466 -4.284461 4.991368 -0.626270 6.980515 4.187661 -5.725086 17.889141 -0.850000 -2.965800 11.120600 -0.949610 8.859424 -26.840491 27.800651 -31.925865 -13.601714 -1.245593 -2.339256 -19.551289 -7.125000 0.000000 0.000000 -8.511844 -12.333122 -28.539353 -15.943467 20.599721 -5.492228 4.379838 2.185880 17.104856 7.125000 0.000000 0.000000 
11.072399 23.976871 11.150375 -178.455453 -4.194900 -168.713831 -21.991282 -8.248303 -7.086231 1.069003 11.131443 31.718107 0.700467 8.737335 -29.556918 2.233900 -9.337100 -26.855700 22.280022 8.349368 -36.595835 -6.127102 -17.231987 50.274264 0.655724 -8.794407 -17.936313 -3.215200 11.035600 -32.400000 1.531018 0.161517 -4.296135 5.308303 -0.649748 6.993947 3.897084 -5.731164 17.951970 -1.084400 -2.986400 11.184600 -0.181394 8.827542 -26.859776 25.261868 -29.715369 -11.841723 -1.494316 -2.609455 -21.129921 -7.125000 0.000000 0.000000 -9.249577 -12.458502 -29.046390 -15.635667 20.194306 -5.267514 4.286366 2.170876 17.360104 7.125000 0.000000 0.000000 
11.038197 23.948973 11.063995 -178.463940 -4.206000 -168.648164 -22.150002 -8.253402 -6.775332 1.059503 11.102750 31.650834 0.698837 8.740019 -29.544913 2.219300 -9.308700 -26.765700 22.250663 8.358025 -36.404144 -6.179573 -17.269900 50.457379 0.742764 -9.259292 -18.133236 -3.172600 10.969400 -32.176600 1.563690 0.179189 -4.318447 5.676342 -0.661024 6.868148 3.665304 -5.821886 17.943390 -1.262700 -3.048600 11.154600 0.654971 8.787952 -27.345201 22.949791 -27.539080 -10.314151 -1.789956 -2.767054 -21.574075 -7.125000 0.000000 0.000000 -9.668479 -12.496208 -29.800973 -15.274746 19.725560 -5.066703 4.309417 2.155339 17.854405 7.125000 0.000000 0.000000 
11.001661 23.926211 10.978782 -178.572259 -4.228106 -168.576264 -22.327034 -7.990770 -6.624090 1.061492 11.088127 31.610861 0.716051 8.534241 -29.303256 2.221300 -9.312700 -26.778300 22.136098 8.415588 -36.160805 -6.224926 -17.299196 50.613170 0.833555 -9.757140 -18.378396 -3.127900 10.899300 -31.940900 1.594439 0.183555 -4.345233 6.091672 -0.677514 6.687639 3.443562 -5.889225 17.871005 -1.433000 -3.101000 11.087100 1.411655 8.888362 -28.012923 21.132965 -25.707275 -9.169636 -2.126168 -2.921582 -21.932527 -7.125000 0.000000 0.000000 -9.838427 -12.386415 -31.026511 -14.912960 19.214794 -4.863035 4.326336 2.041829 18.730694 7.125000 0.000000 0.000000 
10.958588 23.907184 10.897188 -178.720817 -4.274790 -168.519832 -22.498215 -7.476770 -6.582579 1.067495 11.076645 31.572077 0.775595 8.156978 -29.018801 2.235000 -9.339400 -26.862800 21.954669 8.526882 -35.874369 -6.280223 -17.333653 50.796477 0.937208 -10.282986 -18.564069 -3.070300 10.807900 -31.634800 1.618752 0.184906 -4.366033 6.432306 -0.694922 6.542089 3.211024 -5.877444 17.814557 -1.611600 -3.115600 11.088600 2.097842 9.095188 -28.741289 19.767230 -24.256541 -8.334035 -2.519299 -3.121241 -22.505986 -7.125000 0.000000 0.000000 -9.698058 -12.273317 -32.239008 -14.678090 18.852712 -4.750146 4.353843 2.033518 19.186281 7.125000 0.000000 0.000000 
